<?xml version="1.0" standalone="no"?>
<!DOCTYPE svg PUBLIC "-//W3C//DTD SVG 20010904//EN"
 "http://www.w3.org/TR/2001/REC-SVG-20010904/DTD/svg10.dtd">
<svg version="1.0" xmlns="http://www.w3.org/2000/svg"
 width="483.000000pt" height="253.000000pt" viewBox="0 0 483.000000 253.000000"
 preserveAspectRatio="xMidYMid meet">

<g transform="translate(0.000000,253.000000) scale(0.100000,-0.100000)"
fill="#222e50" stroke="none">
<path d="M0 1265 l0 -1265 2415 0 2415 0 0 1265 0 1265 -2415 0 -2415 0 0
-1265z m1810 1145 c12 -29 10 -66 -5 -105 -7 -17 -5 -17 19 5 15 14 35 37 44
52 15 25 69 54 80 43 10 -10 -30 -56 -61 -69 -17 -7 -42 -25 -55 -38 l-23 -26
39 11 c30 8 47 7 71 -2 39 -17 39 -25 1 -41 -31 -13 -95 -7 -117 11 -8 7 -20
-3 -40 -33 -48 -70 -49 -73 -22 -55 25 18 85 22 107 8 11 -6 7 -13 -15 -31
-24 -19 -36 -21 -81 -17 l-52 6 -30 -57 c-16 -31 -29 -52 -30 -47 -1 21 67
139 110 194 l45 56 -17 35 c-21 41 -23 69 -6 105 15 33 23 32 38 -5z m1260
-36 c0 -27 -20 -84 -30 -84 -4 0 -13 14 -20 30 -13 32 -8 84 12 107 10 12 14
11 24 -9 8 -13 13 -32 14 -44z m-143 23 c12 -7 32 -26 45 -44 13 -17 49 -62
81 -99 31 -37 57 -73 57 -78 -1 -10 -9 -1 -48 52 -17 22 -20 22 -63 11 -73
-20 -147 17 -82 42 28 11 62 9 97 -6 39 -17 -17 36 -65 60 -25 13 -50 35 -57
49 -13 30 -2 34 35 13z m252 -140 c1 -28 -24 -87 -41 -98 -4 -3 5 -30 22 -60
16 -30 30 -58 30 -64 0 -5 -13 13 -28 40 l-27 50 -52 -3 c-42 -3 -59 1 -84 18
-23 17 -28 25 -17 31 21 14 91 10 112 -6 27 -21 34 -12 29 42 -3 37 1 56 18
83 20 32 23 33 30 15 4 -11 8 -33 8 -48z m-1483 27 c16 -24 21 -94 8 -115 -18
-31 -62 69 -50 115 8 33 21 33 42 0z m-92 -145 c19 -23 26 -42 26 -74 0 -54
10 -62 40 -30 18 19 34 25 67 25 47 0 53 -10 23 -40 -21 -21 -43 -28 -100 -32
-33 -3 -35 -6 -52 -62 -19 -62 -17 -87 3 -43 12 27 54 47 95 47 53 0 8 -55
-66 -80 -51 -17 -55 -21 -62 -57 -4 -21 -7 -51 -7 -68 l0 -30 14 32 c15 35 45
58 89 69 26 6 28 5 21 -17 -11 -35 -55 -78 -90 -87 -29 -8 -30 -10 -33 -75 -2
-42 1 -67 8 -67 5 0 10 9 10 21 0 25 61 89 85 89 46 0 -20 -113 -72 -127 -21
-5 -23 -9 -17 -42 4 -20 13 -54 19 -76 l13 -40 1 33 c1 38 16 70 44 95 29 25
47 21 47 -8 0 -36 -24 -79 -60 -107 l-31 -24 26 -58 c14 -32 24 -60 22 -62 -5
-5 -57 109 -57 125 0 6 -13 11 -29 11 -39 0 -81 16 -108 42 -33 31 -29 48 10
48 41 -1 73 -19 99 -56 12 -17 17 -21 13 -9 -4 11 -11 45 -17 76 -11 54 -12
56 -54 68 -47 14 -94 60 -94 91 0 16 4 17 29 10 48 -13 67 -28 83 -60 15 -30
16 -26 21 102 3 73 9 143 12 156 5 16 3 22 -8 22 -28 0 -77 68 -77 106 l0 36
28 -17 c38 -24 52 -44 52 -75 0 -50 13 -40 35 27 23 66 23 68 4 81 -28 19 -49
66 -49 107 0 43 10 44 44 4z m1666 -12 c0 -33 -7 -51 -29 -77 l-29 -35 -7 28
c-9 35 -1 67 26 100 29 38 39 34 39 -16z m-409 -358 c-16 -178 -33 -364 -37
-414 -3 -49 -9 -97 -13 -106 -4 -13 -58 45 -200 217 -107 129 -198 231 -201
227 -4 -5 -63 -75 -131 -158 -68 -82 -126 -152 -129 -155 -3 -3 -32 -38 -64
-78 -32 -40 -60 -71 -63 -69 -2 2 -17 154 -33 338 -17 184 -34 375 -39 424 -8
82 -8 106 3 94 2 -2 59 -102 126 -221 67 -120 126 -218 130 -218 4 0 10 -12
14 -27 3 -16 13 -37 21 -48 18 -23 10 -29 119 98 27 32 53 56 56 55 4 -2 40
-43 80 -92 l73 -88 18 33 c10 19 18 42 19 52 0 9 4 17 8 17 10 0 46 59 177
292 49 87 90 156 92 154 2 -2 -10 -149 -26 -327z m-431 280 c0 -10 -7 -19 -15
-19 -16 0 -19 9 -9 34 8 20 24 11 24 -15z m730 -9 c15 -11 29 -17 32 -14 15
14 78 -217 77 -280 -1 -51 -5 -39 -14 37 -5 47 -10 57 -26 57 -37 0 -95 31
-113 60 l-17 30 30 0 c42 0 74 -17 94 -48 21 -35 20 -11 -2 53 -18 50 -18 50
-69 55 -48 5 -102 38 -102 62 0 16 82 8 110 -12z m-760 -38 c0 -15 -28 -47
-35 -40 -8 8 13 48 25 48 6 0 10 -4 10 -8z m60 -11 c12 -24 13 -31 2 -31 -5 0
-14 11 -20 25 -14 29 2 34 18 6z m886 3 c-3 -9 -6 -24 -6 -34 0 -20 -55 -90
-71 -90 -5 0 -9 16 -9 36 0 28 8 44 34 70 36 36 62 45 52 18z m-986 -66 c0
-17 -18 -44 -24 -37 -8 7 5 49 15 49 5 0 9 -6 9 -12z m138 -13 c10 -21 9 -25
-3 -25 -8 0 -15 4 -15 9 0 5 -3 16 -6 25 -10 26 12 18 24 -9z m-168 -57 c-1
-17 -28 -53 -35 -46 -8 8 13 58 25 58 5 0 10 -6 10 -12z m210 -35 c0 -7 -4
-13 -8 -13 -12 0 -32 46 -24 55 8 8 32 -24 32 -42z m-1021 -27 c12 -13 25 -40
28 -61 l6 -37 -29 15 c-42 22 -73 58 -80 95 -6 32 -6 32 24 21 16 -5 39 -20
51 -33z m1853 -25 c-10 -14 -34 -36 -53 -49 -29 -20 -34 -21 -37 -8 -6 29 32
89 68 108 35 18 35 18 38 -3 2 -12 -5 -34 -16 -48z m-163 2 c13 -8 28 -28 34
-44 6 -16 15 -29 19 -29 4 0 8 -33 9 -72 0 -73 0 -73 16 -42 18 36 60 64 97
64 26 0 26 -1 11 -29 -19 -37 -57 -68 -95 -76 -25 -5 -31 -14 -40 -48 -17 -71
-32 -121 -41 -142 -4 -11 -16 -38 -26 -60 -9 -22 -19 -44 -21 -50 -3 -5 11 5
31 23 29 28 43 34 81 34 25 1 49 -2 54 -6 4 -4 -8 -21 -26 -37 -28 -25 -40
-29 -91 -29 -56 0 -60 -2 -79 -33 -11 -19 -28 -46 -37 -61 l-18 -28 38 26 c21
14 42 26 47 26 17 0 98 -22 98 -27 0 -3 -10 -13 -22 -24 -32 -26 -77 -33 -128
-19 -45 12 -44 12 -70 -30 -4 -8 -12 -12 -15 -8 -4 4 0 14 9 23 15 15 15 19
-4 42 -24 31 -34 82 -26 128 9 44 19 44 46 -1 19 -29 21 -44 16 -87 l-7 -51
19 24 c10 14 27 39 37 56 17 31 17 31 -14 74 -23 32 -31 54 -31 86 0 24 4 45
9 49 5 3 22 -11 38 -31 22 -29 28 -47 27 -83 l-2 -46 30 63 31 64 -36 29 c-38
31 -65 94 -54 124 6 14 9 14 32 -1 33 -21 55 -63 56 -106 1 -30 3 -28 19 22
26 75 25 97 -3 104 -32 8 -74 55 -82 94 -8 39 5 42 52 10 20 -14 39 -39 47
-63 l14 -40 1 72 1 72 -42 19 c-48 21 -72 46 -81 80 -5 22 -3 23 21 17 15 -3
38 -13 51 -22z m-919 5 c0 -19 -18 -43 -25 -36 -9 9 4 48 16 48 5 0 9 -6 9
-12z m278 -16 c2 -12 -1 -22 -7 -22 -6 0 -11 4 -11 9 0 5 -3 17 -7 27 -4 12
-2 15 8 12 8 -2 15 -14 17 -26z m-308 -49 c-1 -20 -28 -55 -34 -45 -8 13 10
52 24 52 6 0 10 -3 10 -7z m340 -13 c13 -24 2 -50 -11 -29 -9 15 -12 49 -4 49
2 0 9 -9 15 -20z m-297 -244 c-8 -11 -33 22 -33 43 0 11 6 9 19 -9 11 -13 17
-29 14 -34z m254 19 c-12 -25 -27 -33 -27 -14 0 6 5 19 11 30 15 28 29 14 16
-16z m821 -27 c-23 -34 -60 -58 -101 -65 -47 -7 -48 8 -3 53 28 28 42 34 76
34 42 0 42 0 28 -22z m-1038 -37 c12 -24 13 -41 2 -41 -8 0 -32 43 -32 55 0
13 21 3 30 -14z m180 7 c0 -7 -7 -21 -14 -31 -19 -24 -31 -4 -14 23 14 22 28
26 28 8z m-771 -111 c-7 -16 -23 -43 -37 -59 l-24 -29 27 -40 c14 -23 24 -43
21 -46 -2 -3 -17 15 -32 39 -23 36 -28 52 -25 97 3 59 21 104 48 120 15 8 19
5 26 -21 5 -20 4 -42 -4 -61z m635 27 c15 -40 -4 -48 -22 -9 -9 20 -9 25 2 25
8 0 17 -7 20 -16z m96 9 c-1 -14 -30 -47 -36 -41 -8 8 14 48 26 48 6 0 10 -3
10 -7z m-862 -61 c12 -8 28 -24 33 -35 11 -19 8 -19 -50 -15 -46 3 -67 10 -86
28 -31 29 -31 37 -2 43 31 6 78 -3 105 -21z m198 -24 c12 -38 6 -85 -16 -129
-17 -32 -19 -44 -9 -55 6 -8 8 -18 4 -22 -4 -4 -10 -2 -12 4 -14 39 -28 46
-72 34 -48 -13 -97 -6 -123 18 -26 22 -22 30 22 42 32 9 46 7 77 -7 21 -9 43
-17 48 -18 6 0 15 -4 22 -8 9 -6 10 -1 1 23 -12 36 -5 79 18 115 20 31 31 32
40 3z m618 14 c8 -13 -11 -35 -23 -28 -16 10 -14 36 3 36 8 0 17 -4 20 -8z
m-2044 -402 l0 -30 -130 0 -130 0 0 -70 0 -70 100 0 100 0 0 -30 0 -30 -100 0
-100 0 0 -80 0 -80 130 0 130 0 0 -30 0 -30 -160 0 -160 0 0 240 0 240 160 0
160 0 0 -30z m230 -180 l0 -210 110 0 110 0 0 -30 0 -30 -135 0 -135 0 0 240
0 240 25 0 25 0 0 -210z m440 -30 l0 -240 -30 0 -30 0 0 240 0 240 30 0 30 0
0 -240z m510 210 l0 -30 -80 0 -80 0 0 -210 0 -210 -25 0 -25 0 0 210 0 210
-80 0 -80 0 0 30 0 30 185 0 185 0 0 -30z m470 0 l0 -30 -130 0 -130 0 0 -70
0 -70 100 0 c59 0 101 -4 101 -10 6 -46 9 -45 -98 -48 l-103 -3 0 -79 0 -80
130 0 130 0 0 -30 0 -30 -160 0 -160 0 0 240 0 240 160 0 160 0 0 -30z m710
11 c54 -28 80 -74 80 -140 0 -58 -13 -87 -54 -125 -33 -29 -61 -36 -142 -36
l-74 0 0 -80 0 -80 -30 0 -29 0 -1 240 0 240 108 0 c85 0 114 -4 142 -19z
m500 1 c23 -12 43 -35 58 -64 30 -60 22 -109 -25 -156 l-33 -34 22 -31 c13
-18 47 -63 76 -102 l54 -70 -37 -3 c-24 -2 -41 2 -46 10 -4 7 -35 50 -70 96
l-62 82 -58 0 c-40 0 -59 -4 -60 -12 0 -7 -1 -49 -2 -93 -2 -79 -2 -80 -29
-83 l-28 -3 0 240 0 241 103 0 c79 0 110 -4 137 -18z m330 -223 l0 -240 -27 3
-28 3 -3 225 c-1 123 0 230 2 237 3 7 17 13 31 13 l25 0 0 -241z m334 111 l89
-129 55 77 c126 175 132 182 157 182 l25 0 0 -240 0 -240 -25 0 -25 0 -2 188
-3 187 -88 -122 c-49 -68 -90 -123 -92 -123 -2 0 -43 55 -92 122 l-88 122 -3
-187 -2 -187 -25 0 -25 0 0 240 0 240 28 -1 c23 0 39 -17 116 -129z m846 100
l0 -30 -130 0 -130 0 0 -70 0 -70 100 0 100 0 0 -30 0 -30 -100 0 -100 0 0
-80 0 -80 130 0 130 0 0 -30 0 -30 -160 0 -160 0 0 240 0 240 160 0 160 0 0
-30z m-3225 -610 c-3 -5 -15 -10 -26 -10 -17 0 -19 -7 -19 -65 0 -37 -4 -65
-10 -65 -6 0 -10 28 -10 65 0 63 -1 65 -25 65 -14 0 -25 5 -25 10 0 6 27 10
61 10 37 0 58 -4 54 -10z m113 -2 c15 -15 16 -54 2 -63 -10 -6 18 -65 31 -65
3 0 19 32 34 70 15 39 32 70 37 70 5 0 18 -21 28 -47 11 -27 24 -56 30 -65 5
-10 10 -22 10 -28 0 -17 -18 -11 -25 9 -3 10 -14 21 -23 23 -26 7 -62 -9 -62
-27 0 -27 -47 -18 -72 15 -29 40 -58 40 -58 0 0 -16 -4 -30 -10 -30 -6 0 -10
32 -10 75 l0 75 38 0 c21 0 43 -5 50 -12z m201 -15 c6 -16 15 -41 22 -58 l11
-30 22 54 c33 83 49 73 17 -10 -16 -40 -33 -75 -38 -76 -6 -2 -20 25 -33 59
-12 35 -25 69 -27 76 -10 25 15 11 26 -15z m221 17 c0 -5 -18 -10 -40 -10 -33
0 -40 -3 -40 -20 0 -16 7 -20 30 -20 17 0 30 -4 30 -10 0 -5 -13 -10 -30 -10
-25 0 -30 -4 -30 -25 0 -22 4 -25 40 -25 22 0 40 -4 40 -10 0 -5 -22 -10 -50
-10 l-50 0 0 75 0 75 50 0 c28 0 50 -4 50 -10z m50 -55 l0 -65 35 0 c19 0 35
-4 35 -10 0 -5 -20 -10 -45 -10 l-45 0 0 75 c0 43 4 75 10 75 6 0 10 -28 10
-65z m265 55 c-3 -5 -15 -10 -26 -10 -17 0 -19 -7 -19 -59 0 -33 -4 -63 -10
-66 -6 -4 -10 18 -10 59 0 64 -1 66 -25 66 -14 0 -25 5 -25 10 0 6 27 10 61
10 37 0 58 -4 54 -10z m113 -2 c15 -15 16 -50 1 -65 -8 -8 -6 -18 7 -37 11
-14 22 -26 25 -26 3 0 19 32 34 70 15 39 32 70 37 70 5 0 18 -21 28 -47 11
-27 24 -56 30 -65 5 -10 10 -22 10 -28 0 -18 -17 -10 -27 13 -14 31 -68 31
-82 0 -15 -33 -52 -30 -73 7 -23 41 -58 41 -58 0 0 -16 -4 -30 -10 -30 -6 0
-10 32 -10 75 l0 75 38 0 c21 0 43 -5 50 -12z m300 -8 c25 -24 29 -76 9 -104
-8 -11 -31 -20 -60 -23 l-47 -6 0 77 0 76 38 0 c25 0 46 -7 60 -20z m72 -55
c0 -43 -4 -75 -10 -75 -6 0 -10 32 -10 75 0 43 4 75 10 75 6 0 10 -32 10 -75z
m140 65 c0 -5 -11 -10 -25 -10 -24 0 -25 -2 -25 -65 0 -37 -4 -65 -10 -65 -6
0 -10 28 -10 65 0 63 -1 65 -25 65 -14 0 -25 5 -25 10 0 6 27 10 60 10 33 0
60 -4 60 -10z m40 -65 c0 -43 -4 -75 -10 -75 -6 0 -10 32 -10 75 0 43 4 75 10
75 6 0 10 -32 10 -75z m160 53 c26 -28 26 -82 0 -108 -24 -24 -77 -26 -108 -4
-27 18 -30 78 -6 112 21 31 85 31 114 0z m114 -33 c22 -30 41 -55 43 -55 3 0
3 21 2 48 -1 26 2 49 7 52 11 6 14 -129 3 -136 -5 -2 -25 18 -46 46 -20 27
-41 50 -46 50 -5 0 -6 -23 -3 -51 4 -35 2 -49 -6 -47 -10 4 -11 20 -9 118 1
17 4 30 9 30 4 0 25 -25 46 -55z m-2099 -20 c0 -13 -8 -21 -22 -23 -19 -3 -23
1 -23 23 0 22 4 26 23 23 14 -2 22 -10 22 -23z m2425 0 c0 -18 -5 -25 -19 -25
-11 0 -23 5 -26 10 -11 18 3 40 25 40 15 0 20 -7 20 -25z"/>
<path d="M2825 1948 c-16 -29 -64 -115 -107 -191 -43 -76 -76 -142 -73 -147 4
-6 -1 -13 -10 -16 -9 -4 -22 -19 -31 -35 -14 -29 -14 -30 62 -124 43 -52 82
-92 86 -88 12 7 39 -29 33 -44 -2 -7 -1 -13 3 -13 6 0 74 701 68 708 -2 1 -16
-22 -31 -50z m-155 -387 c0 -5 3 -16 6 -25 10 -26 -12 -18 -24 9 -10 21 -9 25
3 25 8 0 15 -4 15 -9z m38 -86 c14 -29 -2 -44 -17 -16 -6 11 -11 24 -11 30 0
20 17 11 28 -14z m42 -92 c0 -7 -4 -13 -8 -13 -12 0 -32 46 -24 55 8 8 32 -24
32 -42z"/>
<path d="M1980 1960 c0 -42 51 -623 57 -650 6 -24 6 -24 15 8 5 21 14 32 23
30 16 -3 165 168 165 188 0 6 -11 23 -25 38 -14 15 -25 32 -25 38 0 12 -185
345 -201 363 -5 5 -9 -1 -9 -15z m210 -398 c0 -15 -28 -47 -35 -40 -8 8 13 48
25 48 6 0 10 -4 10 -8z m-40 -75 c0 -7 -7 -22 -15 -33 -12 -16 -14 -17 -15 -2
0 23 11 48 21 48 5 0 9 -6 9 -13z m-42 -92 c-11 -25 -28 -34 -28 -15 0 17 23
49 32 44 4 -3 2 -16 -4 -29z"/>
<path d="M2560 740 l0 -100 78 0 c68 0 80 3 104 25 33 30 42 57 34 100 -11 56
-45 75 -137 75 l-79 0 0 -100z"/>
<path d="M3103 842 l-33 -3 0 -85 0 -84 71 0 c65 0 73 2 100 29 39 40 37 74
-8 130 -6 8 -96 16 -130 13z"/>
<path d="M1580 225 c0 -23 4 -26 28 -23 19 2 27 9 27 23 0 14 -8 21 -27 23
-24 3 -28 0 -28 -23z"/>
<path d="M1742 215 c-16 -34 -15 -35 8 -35 21 0 24 12 11 43 -6 17 -8 16 -19
-8z"/>
<path d="M2430 225 c0 -23 4 -26 28 -23 19 2 27 9 27 23 0 14 -8 21 -27 23
-24 3 -28 0 -28 -23z"/>
<path d="M2591 212 c-10 -18 -9 -23 4 -28 23 -9 30 2 18 28 l-10 23 -12 -23z"/>
<path d="M2718 195 c4 -50 6 -55 28 -55 34 0 67 35 59 63 -9 29 -33 47 -64 47
-25 0 -26 -2 -23 -55z"/>
<path d="M3110 235 c-30 -36 -4 -95 43 -95 52 0 78 58 41 94 -20 20 -68 21
-84 1z"/>
</g>
</svg>
